<svg xmlns="http://www.w3.org/2000/svg" viewBox="70 70 60 60"><path fill="#f5f5f5" d="m121.6 87.3-.2-.8v-.3l-.2-.6-.1-.2-.2-.7-.1-.2a6.8 6.8 0 0 0-.7-1.5l-.2-.2-.2-.3-.1-.2-.2-.2V82l-.2-.2-.3-.2-.8-.7c-.3-.3-.7-.5-1.2-.5s-1 .1-1.4.3l-4.7 1.4-.3.1-.8.3-.3.1-.8.3-.3.2-.7.3-.3.2c-.3 0-.5.2-.7.3l-.3.2-.6.4-.3.2-.5.5-.3.3-.4.4-.2.4-.4.5-.2.4-.3.6-.2.5c0 .2 0 .4-.2.7v.5l-.2.7v1.5l-.1.5V92.8v-.1.6-.1.1l.1.2v.3l.2.4v.2l.4.5c.4.5 1 .8 1.5 1 3 1.1 6.3.6 9.5.1s7.5.3 8.2-1.2c.7-1.6-.2-5-.7-7.5ZM108 91c-.1.3-.1.6-.3.8-.2.2-.5.3-.7.2-.3 0-.6-.2-.7-.4l-.2-.1c-.4-.9.2-1.5 1-1.5h.2a13.9 13.9 0 0 0 .7.3l.2.2-.2.5Zm4 1.4c0 .2-.3.1-.5.1-.3 0-.5-.2-.6-.3l-.5-.4-.2-.3c-.2-.3-.2-1.2.7-1.3.4 0 .5 0 .9.2s0 1 .2 1.2c.2.2.1.6 0 .8Zm2.2-5.5c-.1 0-.2 0-.3-.2l.2-.8.2-.2.5-.4c.2-.1.4-.3.7-.3h.4l.2.3-.1.6-.2.6v.8h-.2c-.3-.2-.7-.5-1.1-.4h-.3Zm3.2 6.5-.3.3a1 1 0 0 1-.7 0 .7.7 0 0 1-.4-.2v-.2l-.1-.3-.2-.2-.1-.5-.1-.2V92c.2-.3.4-.3.7-.2l.7-.1h.3l.2.2v.7l.1.3v.4ZM115.8 109.8v-.5l-.1-.3-.1-.5-.1-.3-.1-.3-.1-.2-.2-.4-.3-.3-.2-.4-.3-.3-.4-.3-.3-.3-.6-.6c-1-.7-1.8-1.5-2.7-2.3-.4-.3-.9-.7-1.5-.8-1.3-.1-2 1.5-3 2.4-1.9 1.5-5 .8-6.4 2.7-.4.5-.6 1.1-.7 1.8v1l-.1.2v.9l.1 1v.2l.3.8v.1c.4 1.2 1 2.4 1.7 3.5l1.1 1.3h.1c.4.5.8.9 1.3 1.2 2.1 1.8 6.3 5 8.9 2.4.5-.5.8-1.3 1.1-2l.8-2a21.3 21.3 0 0 0 1.9-7.5v-.2Zm-10.5 2.2-.6.4c-.2.2-.5.2-.8.2a.9.9 0 0 1-.5-.4l-.1-.2-.1-.5-.2-.2-.1-.1-.1-.6s-.2-.1-.2-.3v-.1c.3-.3.6-.3 1-.3l1-.1h.4l.2.3v.9l.2.4-.1.6Zm3 2.2-.4 1c-.2.3-.6.3-.9.3a1.5 1.5 0 0 1-1-.7c-.6-1.1.1-1.8 1.2-1.9h.2l.5.3h.3l.3.4-.2.6Zm5.5-2.7c-.2.3-.3.5-.3.8l.1.4v.6H113.2c-.5-.2-1-.6-1.5-.5h-.3c-.3 0-.4-.1-.4-.2-.1-.3 0-.8.3-1l.2-.3.7-.5c.2-.2.5-.4.8-.4h.5l.2.3c.2.3 0 .6 0 .8ZM101.2 87.2a19.5 19.5 0 0 0-2.8-6.6l-.6-.9-.2-.2-.1-.1-.7-.6-.1-.1a5 5 0 0 0-.9-.6 7 7 0 0 0-4.6-.4c-3.7.9-6.6 3.5-9.3 6a15.5 15.5 0 0 0-3.6 4.4 7 7 0 0 0-.4 1v.2a9 9 0 0 0-.3 1v3.5l.1.2.3 1v.2l.4 1 .5 1v.1c.3.3.4.6.6 1l.2.1v.2a6.6 6.6 0 0 0 .3.3s0 .2.2.2a7.7 7.7 0 0 0 .7 1l.2.3.8.8h.1a21.9 21.9 0 0 0 1 1l.6.4.3.3.6.4.3.2.9.5c2 1 5 2 6.7 0 2.3-2.6.2-5.3 4-7 1.4-.5 2.3-1.7 3.2-3a10 10 0 0 0 1.6-2.9 8 8 0 0 0 0-3.9ZM84 91.4c-.2.4-.2.8-.4 1-.3.3-.6.4-1 .4a1.6 1.6 0 0 1-1.1-.8c-.6-1.1.2-1.9 1.3-2h.2l.6.3c.1 0 .2 0 .3.2l.3.3-.2.6Zm5.3 3.1-.2.4-.4.2c-.4.1-1 .2-1.3 0a1.2 1.2 0 0 1-.7-1c0-.3 0-.7.2-1 .2-.4.6-.7 1-.6.2 0 .4.3.6.2l.4-.2h.2l.1.2c.3.3.4.8.4 1.1 0 .3-.1.5-.3.7Zm3.7-12c.5-.1.5 0 1 .2.6.2.2 1.2.3 1.5.2.2.2.7 0 1 0 .2-.4 0-.6 0-.3 0-.6-.2-.8-.4l-.6-.5-.2-.3c-.2-.3-.2-1.5.9-1.6Zm2.5 11-.3.3-.4.3-.3.2-.3-.3-.1-.1-.2-.2c-.2-.2-.6-.2-.8-.3v-.2c-.1-.6.2-1.2.6-1.5.3-.3.9-.7 1.3-.4l.2.4.2.3.2 1v.4Z"/></svg>