<svg viewBox="0 0 20 14" xmlns="http://www.w3.org/2000/svg" xmlns:svg="http://www.w3.org/2000/svg">
 <g >
  <path  d="m6.56,3.54c-0.92,0.91 -1.44,2.16 -1.45,3.46c0,1.32 0.52,2.59 1.45,3.53l1.69,-1.77c-0.45,-0.47 -0.7,-1.11 -0.69,-1.76c0,-0.63 0.24,-1.24 0.69,-1.69l-1.69,-1.76l0,-0.01z" />
  <path  d="m3.03,0.06l0,0.02c-1.83,1.82 -2.85,4.3 -2.84,6.89c-0.02,2.61 1,5.11 2.84,6.96l1.76,-1.77c-1.39,-1.38 -2.16,-3.26 -2.16,-5.22c-0.01,-1.93 0.77,-3.78 2.16,-5.12l-1.76,-1.76z" />
  <path  d="m13.44,3.54l-1.69,1.76c0.45,0.45 0.7,1.06 0.69,1.69c0.01,0.66 -0.23,1.29 -0.69,1.76l1.69,1.77c0.92,-0.94 1.44,-2.21 1.45,-3.53c0,-1.3 -0.52,-2.54 -1.45,-3.46l0,0l0,0.01z" />
  <path  d="m16.97,0.11l0,-0.02s-1.77,1.76 -1.77,1.76c1.38,1.35 2.16,3.19 2.16,5.12c0,1.96 -0.77,3.84 -2.16,5.22l1.77,1.76c1.83,-1.85 2.85,-4.36 2.84,-6.96c0.02,-2.59 -1,-5.07 -2.84,-6.89l0,0.01z" />
 </g>
</svg>