<svg xmlns="http://www.w3.org/2000/svg" viewBox="78 51 181 87"><path fill="#6a6e6e" d="M243.62 103.44c4.5 0 8.66 1.47 12.02 3.95-3.61-5.58-9.89-9.27-17.03-9.27h-4.97c.68 1.7 1.2 3.48 1.56 5.32h8.41ZM105.84 96.47c1.16-22.19 19.52-39.82 41.99-39.82 10.76 0 20.57 4.04 28.01 10.69-7.7-9.75-19.62-16-33.01-16-22.48 0-40.83 17.63-41.99 39.82-12.28.94-21.95 11.2-21.95 23.73 0 7.63 3.59 14.42 9.17 18.77a23.684 23.684 0 0 1-4.17-13.46c0-12.52 9.67-22.78 21.95-23.73ZM205.71 79.16c7.31 0 14.01 2.61 19.22 6.95-5.47-7.44-14.28-12.26-24.22-12.26-5.88 0-11.37 1.69-16 4.61 1.17 2.13 2.17 4.38 2.96 6.72a29.913 29.913 0 0 1 18.04-6.02Z"/><path d="M255.64 107.39a20.178 20.178 0 0 0-12.02-3.95h-8.41c-.36-1.84-.89-3.61-1.56-5.32-1.87-4.7-4.89-8.82-8.72-12.01a29.925 29.925 0 0 0-19.22-6.95 29.89 29.89 0 0 0-18.04 6.02c-.79-2.34-1.79-4.59-2.96-6.72-2.31-4.2-5.32-7.96-8.86-11.13-7.44-6.65-17.25-10.69-28.01-10.69-22.48 0-40.83 17.63-41.99 39.82-12.28.94-21.95 11.2-21.95 23.73 0 4.99 1.54 9.63 4.17 13.46 4.03 3.15 9.11 5.02 14.62 5.02h135.92c11.2 0 20.28-9.08 20.28-20.28 0-4.06-1.19-7.84-3.25-11.01Z" fill="#4d4f4f"/></svg>