<svg  xmlns="http://www.w3.org/2000/svg" viewBox="70 60 60 80"><path fill="#f5f5f5" d="M119 71a3.6 3.6 0 1 1-7.3 0 3.6 3.6 0 0 1 7.2 0Z"/><path fill="#f5f5f5" d="M96.5 79.6s.7-11.2 18.8-15.6c3.9-1 4-3.9.2-3.3-21.6 3.2-40 20-34.9 41.2.6 2.5-1.3 2-2.3 1-6.6-8-1.7-23.3.8-27.6.6-1-.9-2.5-2-1-19.3 28 4.3 56 26.3 42.8 1-.5 1.5-.5 1 1-4 11-16.3 17.8-29.9 18.2-2 0-2.4 2.5.8 2.8 34.8 3.6 60.1-33 37.4-51.6 21.6 7.2 10.4 37.6 10.4 37.6-.6 2 1.4 2.6 2 .7 14.6-38.3-6.1-53.1-28.6-46.2Zm6.6 21.1c-1.4 3-4.5 4.5-7 3.4-2.6-1.2-3.5-4.6-2-7.6 1.3-3 4.5-4.5 7-3.3 2.5 1.1 3.4 4.5 2 7.5Z"/></svg>