<?xml version="1.0" encoding="UTF-8"?><svg id="Layer_1" xmlns="http://www.w3.org/2000/svg" viewBox="0 0 200 200"><defs><style>.cls-1{fill:#f5f5f5;}</style></defs><path class="cls-1" d="M122.04,110.93c-2.31,0-4.38,.99-5.83,2.55l-30.3-12.99c.01-.16,.03-.33,.03-.5s-.02-.33-.03-.5l30.3-12.99c1.45,1.57,3.53,2.55,5.83,2.55,4.4,0,7.96-3.57,7.96-7.96s-3.57-7.96-7.96-7.96-7.96,3.57-7.96,7.96c0,.17,.01,.33,.02,.5l-30.3,12.99c-1.45-1.57-3.53-2.55-5.83-2.55-4.4,0-7.96,3.57-7.96,7.96s3.57,7.96,7.96,7.96c2.31,0,4.38-.99,5.83-2.55l30.3,12.99c-.01,.16-.02,.33-.02,.5,0,4.4,3.57,7.96,7.96,7.96s7.96-3.57,7.96-7.96-3.57-7.96-7.96-7.96Z"/></svg>