<svg xmlns="http://www.w3.org/2000/svg" viewBox="70 60 60 70"><path d="m87.69 68.04 8.22 11.57 3.35-11.57 1.19 11.57 15.25-13.09-7.91 17.96L120.88 79l-9.74 11.57 18.87-2.74-15.83 8.96 15.83 4.43h-17.05l14 12.78-13.7-6.09s4.87 8.52 3.96 7.91-8.37-3.65-8.37-3.65l2.28 15.22-7.31-12.18-3.37 18.26-3.02-19.18s-12.18 16.74-11.87 15.83 5.48-19.18 5.48-19.18-14 12.78-13.09 10.96c.91-1.83 9.13-16.44 9.13-16.44s-17.96 7-17.05 6.39 14.61-11.87 14.61-11.87l-12.48-3.21 13.09-1.96-13.39-9.74 14.61 1.83-4.26-10.05 7.61 6.39-2.13-15.22Z" fill="currentColor"/></svg>